<svg width="32" height="70" viewBox="0 0 32 70" fill="none" xmlns="http://www.w3.org/2000/svg">
<g clip-path="url(#clip0_314_1632)">
<path d="M15.5791 10.7989C16.1853 10.4758 16.9448 10.3163 17.703 10.286L18.0278 10.2804C18.8624 10.2869 19.6695 10.4199 20.3824 10.664L20.682 10.776C21.4939 11.1027 22.1885 11.6959 22.744 12.2488L22.9731 12.4826L23.4016 12.9374C24.0224 13.6041 24.6928 14.3273 25.5518 14.8148L25.7264 14.9096C26.8722 15.4984 28.2499 15.4351 29.4965 14.7654L29.4953 14.7649C29.8528 14.573 30.1711 14.3331 30.464 14.0931L30.7488 13.8555C30.8209 13.7948 30.8917 13.7356 30.9612 13.678C30.8767 13.8428 30.8 14.0099 30.7299 14.1759L30.4946 14.7669C30.3942 15.0266 30.3013 15.2661 30.2024 15.4831L30.1017 15.6921C29.6538 16.5557 29.0765 17.1254 28.3422 17.4519L28.1935 17.5142L28.1926 17.5146C27.3173 17.8565 26.3161 17.8822 25.3544 17.5857L25.1629 17.5212C25.059 17.4843 24.9541 17.4433 24.8485 17.4001L24.5305 17.2668C23.8795 16.9889 23.1399 16.6677 22.2696 16.7787L22.0934 16.8064C21.0711 17.0035 20.1282 17.6209 19.5283 18.4769L19.4129 18.6518C19.1015 19.1516 18.8806 19.691 18.6905 20.2175L18.5082 20.7379C18.2501 21.4852 18.0162 22.1579 17.6237 22.7352L17.4453 22.9762C16.929 23.6188 16.2334 24.1752 15.4159 24.5974L15.0582 24.7703C14.4334 25.0508 13.7733 25.228 13.0889 25.2989L12.7946 25.3224C12.6386 25.3315 12.4808 25.3266 12.3163 25.3129L11.7969 25.2541C11.3993 25.203 10.959 25.1451 10.5025 25.1863L10.3052 25.2104C9.95543 25.2649 9.63348 25.3855 9.33841 25.5128L9.05209 25.6396C8.86177 25.7256 8.68931 25.8034 8.52028 25.8655L8.35189 25.9225C7.82773 26.0808 7.30421 26.1394 6.79207 26.0997L6.57409 26.0762C5.82848 25.9767 5.08025 25.6979 4.39392 25.2605L4.10448 25.0635C2.64138 24.007 1.70368 22.3488 1.59249 20.6825L1.58163 20.3491C1.58178 19.2138 1.69933 17.8969 2.47021 16.981L2.63285 16.8042C3.15896 16.2783 3.98402 15.696 4.85247 15.3313C5.6755 14.9857 6.48452 14.8566 7.10994 15.0866L7.23304 15.1379L7.33626 15.1861L7.33592 15.1852C8.02925 15.5082 8.74559 15.8472 9.65605 15.7826L9.84084 15.7642C10.1534 15.7241 10.4391 15.6328 10.7001 15.5369L10.9522 15.4416C11.292 15.311 11.5756 15.2037 11.8675 15.1769L11.9933 15.171C13.12 15.161 14.1658 15.903 14.5836 17.0335L14.6358 17.1943C14.8453 17.9518 14.6044 18.7975 14.0413 19.3082L13.9152 19.4121C13.5866 19.6609 13.1998 19.7378 12.7401 19.7708L12.2552 19.7941C11.7091 19.813 11.0936 19.8322 10.5007 20.0839L10.2482 20.2064C10.0986 20.2891 9.95804 20.3762 9.8246 20.4631L9.44307 20.7208C8.87657 21.1108 8.44387 21.4014 7.81914 21.4059L7.69205 21.403C7.19626 21.3766 6.6202 21.1682 6.32786 20.7185L6.27386 20.626C6.12992 20.352 6.12336 20.0255 6.22497 19.6945C6.31411 19.4044 6.48265 19.1248 6.6889 18.9023L6.77983 18.8104C7.0989 18.5076 7.49669 18.3241 7.8385 18.2917L7.98139 18.2867C8.1976 18.2946 8.38129 18.3689 8.53657 18.5124L8.60051 18.5783L8.60142 18.578C8.77372 18.7685 9.05183 18.8043 9.26413 18.6806L9.35105 18.6172C9.54231 18.4464 9.58206 18.1679 9.45676 17.9544L9.39245 17.8678C9.07829 17.5196 8.67473 17.3055 8.22057 17.2445L8.02257 17.2271C7.42221 17.2053 6.78539 17.4429 6.26334 17.8561L6.04728 18.0432C5.34431 18.7104 4.8321 19.8837 5.23771 20.9156L5.33087 21.1196C5.74555 21.9093 6.63703 22.4085 7.63168 22.4613L7.63202 22.4622C8.43961 22.5052 9.0426 22.2364 9.55684 21.9178L10.0455 21.5923C10.2216 21.4711 10.3964 21.3518 10.5779 21.2413L10.762 21.1336C11.0829 20.9562 11.4419 20.8998 11.8559 20.8737L12.2891 20.854C13.0018 20.8291 13.8304 20.8062 14.5573 20.2554L14.5576 20.2564C15.6427 19.4347 16.0603 17.9576 15.582 16.6642L15.4653 16.3825C15.3679 16.17 15.2519 15.9699 15.1222 15.7816C15.4053 15.902 15.7057 15.9768 16.0175 15.9949L16.0178 15.9958C16.9512 16.0498 17.8821 15.5776 18.3986 14.8038L18.4963 14.6458C18.8277 14.0591 18.7935 13.3366 18.425 12.7698L18.3463 12.6584C17.9167 12.0919 17.2204 11.8363 16.5323 11.9966L16.5314 11.997C16.5251 11.9983 16.52 12.0005 16.5174 12.0011C16.5121 12.0026 16.5079 12.0037 16.506 12.0043C16.5021 12.0056 16.4985 12.0061 16.4965 12.0068C16.4923 12.0082 16.4877 12.01 16.4837 12.0115C16.4753 12.0147 16.4645 12.0192 16.452 12.0243C16.4266 12.0346 16.3913 12.0493 16.3505 12.0681C16.2696 12.1053 16.1608 12.1601 16.0508 12.2289C15.9425 12.2967 15.8226 12.3855 15.7275 12.4922C15.6345 12.5967 15.5412 12.746 15.545 12.9304C15.5489 13.1219 15.6601 13.3526 15.916 13.4492L16.0341 13.4815L16.0354 13.482C16.301 13.53 16.5558 13.3714 16.6359 13.1183C16.6599 13.1033 16.6846 13.0876 16.7089 13.0736C16.7482 13.0509 16.7798 13.0342 16.8 13.0242C17.0327 12.9791 17.2561 13.0468 17.4255 13.2177L17.4974 13.2994C17.6653 13.5208 17.7026 13.7978 17.6148 14.0306L17.5695 14.1276C17.3009 14.603 16.7419 14.9282 16.1922 14.939L16.0822 14.937C15.568 14.9073 15.1981 14.6545 14.954 14.4037L14.8572 14.2969C14.5041 13.8809 14.3062 13.332 14.3072 12.7959L14.3204 12.5671C14.4131 11.73 14.8948 11.1636 15.5791 10.7989ZM21.8092 15.2133C19.8869 15.2197 18.1663 16.3887 17.1157 18.3136L16.9142 18.7088L16.8925 18.7544C16.4942 19.5952 16.0834 20.4607 15.5432 21.1558C15.0409 21.8023 14.4407 22.2824 13.656 22.4548L13.4966 22.4856C13.3415 22.5107 13.1829 22.5218 13.0168 22.5257L12.4917 22.5221C12.046 22.5131 11.549 22.5015 11.0527 22.6233L10.84 22.6843L10.8372 22.6853C10.5979 22.7672 10.4488 23.0025 10.4771 23.2486L10.4994 23.3539L10.4997 23.3548C10.5802 23.5994 10.8213 23.7436 11.066 23.7148L11.171 23.6916C11.4554 23.5981 11.7618 23.5783 12.1078 23.5783L12.4676 23.5826C12.8397 23.59 13.2506 23.5985 13.6629 23.532L13.6633 23.5329C13.9205 23.4914 14.1632 23.426 14.3921 23.3414C15.3182 22.9988 16.0056 22.3348 16.5473 21.5789C16.9525 21.0134 17.2837 20.3862 17.575 19.7888L17.8539 19.2057L17.8762 19.1589C18.6883 17.4451 20.0395 16.4128 21.5138 16.2868L21.81 16.274C22.0649 16.2733 22.2799 16.0923 22.3302 15.8505L22.3415 15.7432C22.342 15.4853 22.1582 15.2723 21.9161 15.2237L21.8092 15.2133ZM6.19367 12.6829C6.66586 12.4202 7.24058 12.2295 7.99353 12.0962L8.32763 12.0424C9.03835 11.9391 9.85787 11.8223 10.6325 11.5656L10.9615 11.4471C11.3155 11.308 11.6315 11.1134 11.9212 10.9171L12.2031 10.7222C12.6375 10.4182 13.0075 10.1629 13.4215 10.0528L13.6011 10.0146L13.602 10.0142C14.1066 9.93509 14.4605 9.92597 14.7886 10.0386C13.9687 10.5637 13.4509 11.3198 13.2925 12.2456L13.2631 12.4532C13.184 13.1675 13.355 13.9135 13.7271 14.5379C13.2824 14.3041 12.793 14.157 12.2823 14.1197L11.9863 14.1105C11.4406 14.1153 10.9762 14.2967 10.5718 14.4526L10.1247 14.6148C10.0541 14.6374 9.98456 14.6571 9.91531 14.6736L9.70768 14.7118C9.20241 14.7766 8.77336 14.6551 8.2921 14.4514L7.78848 14.2244L7.684 14.1756C6.80517 13.7675 5.76841 13.8782 4.80233 14.2191C5.08251 13.69 5.48412 13.1376 6.03884 12.7766L6.19367 12.6829Z" stroke="#FFEFEF" stroke-width="0.5"/>
<path d="M36.5791 32.7989C37.1853 32.4758 37.9448 32.3163 38.703 32.286L39.0278 32.2804C39.8624 32.2869 40.6695 32.4199 41.3824 32.664L41.682 32.776C42.4939 33.1027 43.1885 33.6959 43.744 34.2488L43.9731 34.4826L44.4016 34.9374C45.0224 35.6041 45.6928 36.3273 46.5518 36.8148L46.7264 36.9096C47.8722 37.4984 49.2499 37.4351 50.4965 36.7654L50.4953 36.7649C50.8528 36.573 51.1711 36.3331 51.464 36.0931L51.7488 35.8555C51.8209 35.7948 51.8917 35.7356 51.9612 35.678C51.8767 35.8428 51.8 36.0099 51.7299 36.1759L51.4946 36.7669C51.3942 37.0266 51.3013 37.2661 51.2024 37.4831L51.1017 37.6921C50.6538 38.5557 50.0765 39.1254 49.3422 39.4519L49.1935 39.5142L49.1926 39.5146C48.3173 39.8565 47.3161 39.8822 46.3544 39.5857L46.1629 39.5212C46.059 39.4843 45.9541 39.4433 45.8485 39.4001L45.5305 39.2668C44.8795 38.9889 44.1399 38.6677 43.2696 38.7787L43.0934 38.8064C42.0711 39.0035 41.1282 39.6209 40.5283 40.4769L40.4129 40.6518C40.1015 41.1516 39.8806 41.691 39.6905 42.2175L39.5082 42.7379C39.2501 43.4852 39.0162 44.1579 38.6237 44.7352L38.4453 44.9762C37.929 45.6188 37.2334 46.1752 36.4159 46.5974L36.0582 46.7703C35.4334 47.0508 34.7733 47.228 34.0889 47.2989L33.7946 47.3224C33.6386 47.3315 33.4808 47.3266 33.3163 47.3129L32.7969 47.2541C32.3993 47.203 31.959 47.1451 31.5025 47.1863L31.3052 47.2104C30.9554 47.2649 30.6335 47.3855 30.3384 47.5128L30.0521 47.6396C29.8618 47.7256 29.6893 47.8034 29.5203 47.8655L29.3519 47.9225C28.8277 48.0808 28.3042 48.1394 27.7921 48.0997L27.5741 48.0762C26.8285 47.9767 26.0803 47.6979 25.3939 47.2605L25.1045 47.0635C23.6414 46.007 22.7037 44.3488 22.5925 42.6825L22.5816 42.3491C22.5818 41.2138 22.6993 39.8969 23.4702 38.981L23.6328 38.8042C24.159 38.2783 24.984 37.696 25.8525 37.3313C26.6755 36.9857 27.4845 36.8566 28.1099 37.0866L28.233 37.1379L28.3363 37.1861L28.3359 37.1852C29.0292 37.5082 29.7456 37.8472 30.6561 37.7826L30.8408 37.7642C31.1534 37.7241 31.4391 37.6328 31.7001 37.5369L31.9522 37.4416C32.292 37.311 32.5756 37.2037 32.8675 37.1769L32.9933 37.171C34.12 37.161 35.1658 37.903 35.5836 39.0335L35.6358 39.1943C35.8453 39.9518 35.6044 40.7975 35.0413 41.3082L34.9152 41.4121C34.5866 41.6609 34.1998 41.7378 33.7401 41.7708L33.2552 41.7941C32.7091 41.813 32.0936 41.8322 31.5007 42.0839L31.2482 42.2064C31.0986 42.2891 30.958 42.3762 30.8246 42.4631L30.4431 42.7208C29.8766 43.1108 29.4439 43.4014 28.8191 43.4059L28.6921 43.403C28.1963 43.3766 27.6202 43.1682 27.3279 42.7185L27.2739 42.626C27.1299 42.352 27.1234 42.0255 27.225 41.6945C27.3141 41.4044 27.4827 41.1248 27.6889 40.9023L27.7798 40.8104C28.0989 40.5076 28.4967 40.3241 28.8385 40.2917L28.9814 40.2867C29.1976 40.2946 29.3813 40.3689 29.5366 40.5124L29.6005 40.5783L29.6014 40.578C29.7737 40.7685 30.0518 40.8043 30.2641 40.6806L30.3511 40.6172C30.5423 40.4464 30.5821 40.1679 30.4568 39.9544L30.3925 39.8678C30.0783 39.5196 29.6747 39.3055 29.2206 39.2445L29.0226 39.2271C28.4222 39.2053 27.7854 39.4429 27.2633 39.8561L27.0473 40.0432C26.3443 40.7104 25.8321 41.8837 26.2377 42.9156L26.3309 43.1196C26.7455 43.9093 27.637 44.4085 28.6317 44.4613L28.632 44.4622C29.4396 44.5052 30.0426 44.2364 30.5568 43.9178L31.0455 43.5923C31.2216 43.4711 31.3964 43.3518 31.5779 43.2413L31.762 43.1336C32.0829 42.9562 32.4419 42.8998 32.8559 42.8737L33.2891 42.854C34.0018 42.8291 34.8304 42.8062 35.5573 42.2554L35.5576 42.2564C36.6427 41.4347 37.0603 39.9576 36.582 38.6642L36.4653 38.3825C36.3679 38.17 36.2519 37.9699 36.1222 37.7816C36.4053 37.902 36.7057 37.9768 37.0175 37.9949L37.0178 37.9958C37.9512 38.0498 38.8821 37.5776 39.3986 36.8038L39.4963 36.6458C39.8277 36.0591 39.7935 35.3366 39.425 34.7698L39.3463 34.6584C38.9167 34.0919 38.2204 33.8363 37.5323 33.9966L37.5314 33.997C37.5251 33.9983 37.52 34.0005 37.5174 34.0011C37.5121 34.0026 37.5079 34.0037 37.506 34.0043C37.5021 34.0056 37.4985 34.0061 37.4965 34.0068C37.4923 34.0082 37.4877 34.01 37.4837 34.0115C37.4753 34.0147 37.4645 34.0192 37.452 34.0243C37.4266 34.0346 37.3913 34.0493 37.3505 34.0681C37.2696 34.1053 37.1608 34.1601 37.0508 34.2289C36.9425 34.2967 36.8226 34.3855 36.7275 34.4922C36.6345 34.5967 36.5412 34.746 36.545 34.9304C36.5489 35.1219 36.6601 35.3526 36.916 35.4492L37.0341 35.4815L37.0354 35.482C37.301 35.53 37.5558 35.3714 37.6359 35.1183C37.6599 35.1033 37.6846 35.0876 37.7089 35.0736C37.7482 35.0509 37.7798 35.0342 37.8 35.0242C38.0327 34.9791 38.2561 35.0468 38.4255 35.2177L38.4974 35.2994C38.6653 35.5208 38.7026 35.7978 38.6148 36.0306L38.5695 36.1276C38.3009 36.603 37.7419 36.9282 37.1922 36.939L37.0822 36.937C36.568 36.9073 36.1981 36.6545 35.954 36.4037L35.8572 36.2969C35.5041 35.8809 35.3062 35.332 35.3072 34.7959L35.3204 34.5671C35.4131 33.73 35.8948 33.1636 36.5791 32.7989ZM42.8092 37.2133C40.8869 37.2197 39.1663 38.3887 38.1157 40.3136L37.9142 40.7088L37.8925 40.7544C37.4942 41.5952 37.0834 42.4607 36.5432 43.1558C36.0409 43.8023 35.4407 44.2824 34.656 44.4548L34.4966 44.4856C34.3415 44.5107 34.1829 44.5218 34.0168 44.5257L33.4917 44.5221C33.046 44.5131 32.549 44.5015 32.0527 44.6233L31.84 44.6843L31.8372 44.6853C31.5979 44.7672 31.4488 45.0025 31.4771 45.2486L31.4994 45.3539L31.4997 45.3548C31.5802 45.5994 31.8213 45.7436 32.066 45.7148L32.171 45.6916C32.4554 45.5981 32.7618 45.5783 33.1078 45.5783L33.4676 45.5826C33.8397 45.59 34.2506 45.5985 34.6629 45.532L34.6633 45.5329C34.9205 45.4914 35.1632 45.426 35.3921 45.3414C36.3182 44.9988 37.0056 44.3348 37.5473 43.5789C37.9525 43.0134 38.2837 42.3862 38.575 41.7888L38.8539 41.2057L38.8762 41.1589C39.6883 39.4451 41.0395 38.4128 42.5138 38.2868L42.81 38.274C43.0649 38.2733 43.2799 38.0923 43.3302 37.8505L43.3415 37.7432C43.342 37.4853 43.1582 37.2723 42.9161 37.2237L42.8092 37.2133ZM27.1937 34.6829C27.6659 34.4202 28.2406 34.2295 28.9935 34.0962L29.3276 34.0424C30.0384 33.9391 30.8579 33.8223 31.6325 33.5656L31.9615 33.4471C32.3155 33.308 32.6315 33.1134 32.9212 32.9171L33.2031 32.7222C33.6375 32.4182 34.0075 32.1629 34.4215 32.0528L34.6011 32.0146L34.602 32.0142C35.1066 31.9351 35.4605 31.926 35.7886 32.0386C34.9687 32.5637 34.4509 33.3198 34.2925 34.2456L34.2631 34.4532C34.184 35.1675 34.355 35.9135 34.7271 36.5379C34.2824 36.3041 33.793 36.157 33.2823 36.1197L32.9863 36.1105C32.4406 36.1153 31.9762 36.2967 31.5718 36.4526L31.1247 36.6148C31.0541 36.6374 30.9846 36.6571 30.9153 36.6736L30.7077 36.7118C30.2024 36.7766 29.7734 36.6551 29.2921 36.4514L28.7885 36.2244L28.684 36.1756C27.8052 35.7675 26.7684 35.8782 25.8023 36.2191C26.0825 35.69 26.4841 35.1376 27.0388 34.7766L27.1937 34.6829Z" stroke="#FFEFEF" stroke-width="0.5"/>
<path d="M0.57905 50.7989C1.18533 50.4758 1.9448 50.3163 2.70295 50.286L3.02782 50.2804C3.86242 50.2869 4.66953 50.4199 5.38239 50.664L5.68204 50.776C6.49391 51.1027 7.18853 51.6959 7.74395 52.2488L7.97311 52.4826L8.40165 52.9374C9.02243 53.6041 9.69279 54.3273 10.5518 54.8148L10.7264 54.9096C11.8722 55.4984 13.2499 55.4351 14.4965 54.7654L14.4953 54.7649C14.8528 54.573 15.1711 54.3331 15.464 54.0931L15.7488 53.8555C15.8209 53.7948 15.8917 53.7356 15.9612 53.678C15.8767 53.8428 15.8 54.0099 15.7299 54.1759L15.4946 54.7669C15.3942 55.0266 15.3013 55.2661 15.2024 55.4831L15.1017 55.6921C14.6538 56.5557 14.0765 57.1254 13.3422 57.4519L13.1935 57.5142L13.1926 57.5146C12.3173 57.8565 11.3161 57.8822 10.3544 57.5857L10.1629 57.5212C10.059 57.4843 9.95407 57.4433 9.84846 57.4001L9.5305 57.2668C8.87945 56.9889 8.13989 56.6677 7.26955 56.7787L7.09341 56.8064C6.0711 57.0035 5.12818 57.6209 4.5283 58.4769L4.41288 58.6518C4.10146 59.1516 3.88061 59.691 3.69051 60.2175L3.50817 60.7379C3.2501 61.4852 3.01624 62.1579 2.62375 62.7352L2.44528 62.9762C1.92901 63.6188 1.23336 64.1752 0.415881 64.5974L0.0581548 64.7703C-0.566561 65.0508 -1.22675 65.228 -1.91106 65.2989L-2.20537 65.3224C-2.36143 65.3315 -2.51925 65.3266 -2.68367 65.3129L-3.20313 65.2541C-3.60073 65.203 -4.04103 65.1451 -4.49749 65.1863L-4.69476 65.2104C-5.04457 65.2649 -5.36652 65.3855 -5.66159 65.5128L-5.94791 65.6396C-6.13823 65.7256 -6.31069 65.8034 -6.47972 65.8655L-6.64811 65.9225C-7.17227 66.0808 -7.69579 66.1394 -8.20793 66.0997L-8.42591 66.0762C-9.17152 65.9767 -9.91975 65.6979 -10.6061 65.2605L-10.8955 65.0635C-12.3586 64.007 -13.2963 62.3488 -13.4075 60.6825L-13.4184 60.3491C-13.4182 59.2138 -13.3007 57.8969 -12.5298 56.981L-12.3672 56.8042C-11.841 56.2783 -11.016 55.696 -10.1475 55.3313C-9.3245 54.9857 -8.51548 54.8566 -7.89006 55.0866L-7.76696 55.1379L-7.66374 55.1861L-7.66408 55.1852C-6.97075 55.5082 -6.25441 55.8472 -5.34395 55.7826L-5.15916 55.7642C-4.84658 55.7241 -4.56088 55.6328 -4.29987 55.5369L-4.04776 55.4416C-3.708 55.311 -3.42436 55.2037 -3.13254 55.1769L-3.00667 55.171C-1.88 55.161 -0.834223 55.903 -0.416368 57.0335L-0.364164 57.1943C-0.154658 57.9518 -0.39557 58.7975 -0.958674 59.3082L-1.08475 59.4121C-1.41345 59.6609 -1.80021 59.7378 -2.25986 59.7708L-2.74482 59.7941C-3.29086 59.813 -3.90641 59.8322 -4.49934 60.0839L-4.7518 60.2064C-4.90137 60.2891 -5.04196 60.3762 -5.1754 60.4631L-5.55693 60.7208C-6.12343 61.1108 -6.55613 61.4014 -7.18086 61.4059L-7.30795 61.403C-7.80374 61.3766 -8.3798 61.1682 -8.67214 60.7185L-8.72614 60.626C-8.87008 60.352 -8.87664 60.0255 -8.77503 59.6945C-8.68589 59.4044 -8.51735 59.1248 -8.3111 58.9023L-8.22017 58.8104C-7.9011 58.5076 -7.50331 58.3241 -7.1615 58.2917L-7.01861 58.2867C-6.8024 58.2946 -6.61871 58.3689 -6.46343 58.5124L-6.39949 58.5783L-6.39858 58.578C-6.22628 58.7685 -5.94817 58.8043 -5.73587 58.6806L-5.64895 58.6172C-5.45769 58.4464 -5.41794 58.1679 -5.54324 57.9544L-5.60755 57.8678C-5.92171 57.5196 -6.32527 57.3055 -6.77943 57.2445L-6.97743 57.2271C-7.57779 57.2053 -8.21461 57.4429 -8.73666 57.8561L-8.95272 58.0432C-9.65569 58.7104 -10.1679 59.8837 -9.76229 60.9156L-9.66913 61.1196C-9.25445 61.9093 -8.36297 62.4085 -7.36832 62.4613L-7.36798 62.4622C-6.56039 62.5052 -5.9574 62.2364 -5.44316 61.9178L-4.95446 61.5923C-4.77837 61.4711 -4.60359 61.3518 -4.42209 61.2413L-4.23804 61.1336C-3.91709 60.9562 -3.55813 60.8998 -3.14407 60.8737L-2.7109 60.854C-1.99821 60.8291 -1.16961 60.8062 -0.442716 60.2554L-0.442378 60.2564C0.642665 59.4347 1.06026 57.9576 0.581965 56.6642L0.465263 56.3825C0.367917 56.17 0.251858 55.9699 0.122184 55.7816C0.405283 55.902 0.705683 55.9768 1.01745 55.9949L1.01779 55.9958C1.95124 56.0498 2.88211 55.5776 3.39858 54.8038L3.49632 54.6458C3.82775 54.0591 3.79353 53.3366 3.42501 52.7698L3.3463 52.6584C2.91671 52.0919 2.2204 51.8363 1.53234 51.9966L1.53143 51.997C1.52511 51.9983 1.51995 52.0005 1.51735 52.0011C1.51209 52.0026 1.50786 52.0037 1.50602 52.0043C1.50206 52.0056 1.49848 52.0061 1.49652 52.0068C1.49233 52.0082 1.48768 52.01 1.4837 52.0115C1.47533 52.0147 1.46448 52.0192 1.45198 52.0243C1.42665 52.0346 1.39133 52.0493 1.35052 52.0681C1.26956 52.1053 1.16077 52.1601 1.0508 52.2289C0.942496 52.2967 0.822565 52.3855 0.727529 52.4922C0.634497 52.5967 0.541238 52.746 0.544985 52.9304C0.54887 53.1219 0.660084 53.3526 0.915976 53.4492L1.03413 53.4815L1.03539 53.482C1.30099 53.53 1.55582 53.3714 1.63593 53.1183C1.65995 53.1033 1.68465 53.0876 1.70894 53.0736C1.74821 53.0509 1.77984 53.0342 1.80003 53.0242C2.03266 52.9791 2.25613 53.0468 2.42553 53.2177L2.4974 53.2994C2.66525 53.5208 2.70261 53.7978 2.61484 54.0306L2.56949 54.1276C2.30087 54.603 1.74189 54.9282 1.19223 54.939L1.08217 54.937C0.567973 54.9073 0.198127 54.6545 -0.0459873 54.4037L-0.14278 54.2969C-0.495879 53.8809 -0.693758 53.332 -0.692847 52.7959L-0.679599 52.5671C-0.586891 51.73 -0.105173 51.1636 0.57905 50.7989ZM6.80916 55.2133C4.8869 55.2197 3.16628 56.3887 2.11572 58.3136L1.91416 58.7088L1.89247 58.7544C1.49423 59.5952 1.08336 60.4607 0.543219 61.1558C0.0408604 61.8023 -0.559261 62.2824 -1.34404 62.4548L-1.5034 62.4856C-1.65849 62.5107 -1.81708 62.5218 -1.98318 62.5257L-2.50825 62.5221C-2.95399 62.5131 -3.45103 62.5015 -3.94727 62.6233L-4.16002 62.6843L-4.16277 62.6853C-4.40214 62.7672 -4.55115 63.0025 -4.52292 63.2486L-4.50065 63.3539L-4.50031 63.3548C-4.41975 63.5994 -4.17868 63.7436 -3.93396 63.7148L-3.82904 63.6916C-3.54458 63.5981 -3.23819 63.5783 -2.8922 63.5783L-2.5324 63.5826C-2.16034 63.59 -1.74942 63.5985 -1.33707 63.532L-1.33673 63.5329C-1.07954 63.4914 -0.836764 63.426 -0.607904 63.3414C0.318203 62.9988 1.00556 62.3348 1.54728 61.5789C1.95249 61.0134 2.28369 60.3862 2.57503 59.7888L2.85389 59.2057L2.87616 59.1589C3.6883 57.4451 5.0395 56.4128 6.51383 56.2868L6.81003 56.274C7.06488 56.2733 7.27993 56.0923 7.33015 55.8505L7.34149 55.7432C7.34202 55.4853 7.15823 55.2723 6.91609 55.2237L6.80916 55.2133ZM-8.80633 52.6829C-8.33414 52.4202 -7.75942 52.2295 -7.00647 52.0962L-6.67237 52.0424C-5.96165 51.9391 -5.14213 51.8223 -4.36746 51.5656L-4.03855 51.4471C-3.68453 51.308 -3.36846 51.1134 -3.07882 50.9171L-2.79689 50.7222C-2.3625 50.4182 -1.99251 50.1629 -1.57845 50.0528L-1.39895 50.0146L-1.39803 50.0142C-0.893422 49.9351 -0.539489 49.926 -0.211372 50.0386C-1.03135 50.5637 -1.54907 51.3198 -1.70754 52.2456L-1.73693 52.4532C-1.81598 53.1675 -1.64499 53.9135 -1.2729 54.5379C-1.71762 54.3041 -2.207 54.157 -2.71772 54.1197L-3.01372 54.1105C-3.55938 54.1153 -4.0238 54.2967 -4.4282 54.4526L-4.87527 54.6148C-4.94595 54.6374 -5.01544 54.6571 -5.08469 54.6736L-5.29232 54.7118C-5.79759 54.7766 -6.22664 54.6551 -6.7079 54.4514L-7.21152 54.2244L-7.316 54.1756C-8.19483 53.7675 -9.23159 53.8782 -10.1977 54.2191C-9.91749 53.69 -9.51588 53.1376 -8.96116 52.7766L-8.80633 52.6829Z" stroke="#FFEFEF" stroke-width="0.5"/>
</g>
<defs>
<clipPath id="clip0_314_1632">
<rect width="32" height="70" fill="white"/>
</clipPath>
</defs>
</svg>
