<svg width="840" height="728" viewBox="0 0 840 728" fill="none" xmlns="http://www.w3.org/2000/svg">
<path d="M307.91 381.54C303.97 394.33 309.91 409.45 321.44 416.18C326.28 419 331.85 420.42 336.54 423.48C346.73 430.12 350.75 442.83 354.06 454.53C357.86 467.98 361.67 482.2 358.19 495.73C355.97 504.36 350.92 511.99 348.05 520.43C345.65 527.499 344.814 535.006 345.6 542.43C346.02 546.37 347 550.43 349.7 553.37C353.6 557.57 359.88 558.2 365.52 559.21C377.444 561.465 388.663 566.514 398.259 573.943C407.854 581.373 415.551 590.971 420.72 601.95" stroke="#535461" stroke-width="2" stroke-miterlimit="10"/>
<path d="M324.76 390.14H298.28L302.92 374.26H318.8L324.76 390.14Z" fill="#F55F44"/>
<path d="M420.72 222.7C420.72 283.38 371.53 372.27 310.86 372.27C250.19 372.27 201 283.37 201 222.7C201 193.562 212.575 165.617 233.179 145.014C253.782 124.41 281.727 112.835 310.865 112.835C340.003 112.835 367.948 124.41 388.551 145.014C409.155 165.617 420.73 193.562 420.73 222.7H420.72Z" fill="#FFDEC2"/>
<path d="M318.8 374.92H302.92L293.65 369.63H328.07L318.8 374.92Z" fill="#535461"/>
<path opacity="0.1" d="M271.15 137.32C271.15 137.32 224.82 162.47 218.2 212.77Z" fill="white"/>
</svg>
