<svg width="840" height="728" viewBox="0 0 840 728" fill="none" xmlns="http://www.w3.org/2000/svg">
<path d="M458.25 285.94C448.54 299.54 438.45 314.07 437.6 330.72C436.33 356.31 456.8 377.24 465.94 401.18C469.901 411.725 471.694 422.962 471.211 434.216C470.729 445.471 467.98 456.512 463.13 466.68C458.67 475.9 452.31 485.06 453.13 495.27C453.6 501.5 456.72 507.17 459.23 512.9C465.39 527.26 468.078 542.871 467.076 558.465C466.073 574.059 461.409 589.197 453.46 602.65" stroke="#535461" stroke-width="2" stroke-miterlimit="10"/>
<path d="M468.43 293.56H441.95L446.59 277.68H462.47L468.43 293.56Z" fill="#4D8AF0"/>
<path d="M564.39 126.12C564.39 186.8 515.2 275.69 454.53 275.69C393.86 275.69 344.67 186.79 344.67 126.12C344.67 96.982 356.245 69.0374 376.849 48.4337C397.452 27.83 425.397 16.255 454.535 16.255C483.673 16.255 511.618 27.83 532.221 48.4337C552.825 69.0374 564.4 96.982 564.4 126.12H564.39Z" fill="#F78FAD"/>
<path d="M462.47 278.34H446.59L437.32 273.04H471.74L462.47 278.34Z" fill="#535461"/>
<path opacity="0.1" d="M414.82 40.74C414.82 40.74 368.49 65.89 361.87 116.19Z" fill="white"/>
</svg>
