<?xml version="1.0" encoding="utf-8"?>
<!-- Generator: Adobe Illustrator 24.1.2, SVG Export Plug-In . SVG Version: 6.00 Build 0)  -->
<svg version="1.1" id="Layer_1" xmlns="http://www.w3.org/2000/svg" xmlns:xlink="http://www.w3.org/1999/xlink" x="0px" y="0px"
	 viewBox="0 0 1920 1080" style="enable-background:new 0 0 1920 1080;" xml:space="preserve">
<style type="text/css">
	.st0{fill:none;stroke:#FFFFFF;stroke-width:40;stroke-linecap:round;stroke-linejoin:round;stroke-miterlimit:10;}
</style>
<path class="st0" d="M776,849.2c66.1,68,132.2,136,198.3,204.1c-47.2-38.3-73.1-101.3-66.6-161.8c43.5,8.9,83.3,34.7,109.3,70.7
	c4.1,5.6,9.9,12.3,16.5,10.2c4.1-1.3,6.4-5.5,8.2-9.4c12.1-25.9,20.7-53.5,25.3-81.7c6-35.9,3.7-77.4-23.2-101.9
	c-10.2-9.3-24.7-15.3-37.8-11.2c-17.9,5.6-25.4,26.7-27.7,45.3c-2.9,24-1.3,48.5,4.7,71.8c3.1,12.1,9.3,25.6,21.5,28.3
	c9.4,2.1,18.8-3.3,26.1-9.5c38.8-33.4,40.3-101.1,3.1-136.2c7.5,13.8,17,26.5,28.2,37.6c9.4,9.3,20.5,17.7,33.4,20.3
	c13,2.6,28-1.8,34.7-13.2c7.5-12.7,2.6-28.9-2.4-42.7c-10.2-28.1-20.4-56.2-30.5-84.2c34.7,81.1,69.4,162.1,104.1,243.2
	c-34.4-82.7-60.3-168.9-77.1-256.8c-3.3-17.6-2.4-41.7,14.9-46c20.2,4.2,41.8,12.3,51.8,30.4c16.1,29.1-5.9,63.9-26.9,89.7
	c40-51.6,55.1-121.7,39.9-185.3c35.1,114.9,80.2,226.6,134.8,333.6c-38.6-100.8-77.3-201.9-104-306.5c-5.8-22.9-9.8-50.7,7.4-66.9
	c21.8-20.5,58.8-4.1,76.8,19.8c35.7,47.4,30.3,120.9-11.9,162.5c17.8,5.8,34.8-10.4,45.6-25.7c25-35.3,44-74.9,55.9-116.5
	c11.5-39.9,13.9-89.2-17.3-116.7c10.1,23.4,27.7,43.5,49.6,56.5c3.5,2.1,7.6,4.1,11.6,3.4c7.2-1.3,10.1-9.9,11.6-17.1
	c17.9-87.2,29.7-175.7,35.3-264.6c56.5,44.2,106.7,96.4,148.7,154.5c8,11.1,16,22.9,18.9,36.3c3.9,18-1.6,36.5-7.1,54.1
	c-23.1,74-46.4,148.5-81.3,217.7c-19.3,38.2-45.2,77.4-85.9,90.9c-7.6,2.5-15.8,4.1-23.7,2.7c-17.1-3-29.3-18.7-35.7-34.9
	c-12.4-31.1-9.7-66.5,0.8-98.3c10.6-31.7,28.6-60.4,46.9-88.3c70-106.5,147.9-207.9,232.9-302.9"/>
</svg>
